:FULLY-SPECIFIED
:FORCE-ALL-JOINTS-BE-3DOF
:DEGREES
883
root 3.85195 16.5305 30.5312 -10.8246 23.6768 359.35
lfemur -15.8095 19.9983 -19.0116
ltibia 40.4913 0 0
lfoot -12.9326 0.0690648 0
ltoes -1.37978 0 0
rfemur -80.7132 -24.4467 36.5168
rtibia 101.126 0 0
rfoot 19.264 26.205 0
rtoes -8.14353 0 0
lowerback 15.0059 -4.01209 -6.64789
upperback 4.97444 -6.28636 -2.38034
thorax -2.64296 -3.11384 2.26165
lowerneck -7.71871 -3.24517 1.71638
upperneck 4.65939 -4.84264 4.94114
head 2.93726 -2.18998 1.06474
lclavicle -3.12092e-14 -4.77083e-15 0
lhumerus -33.0312 -40.5423 88.3441
lradius 60.5977 0 0
lwrist 19.6497 0 0
lhand 25.8347 11.8689 0
lfingers 7.12502 0 0
lthumb 49.9264 33.1302 0
rclavicle -3.12092e-14 -4.77083e-15 0
rhumerus -49.2556 -29.6742 -46.9493
rradius 72.2992 0 0
rwrist -23.3678 0 0
rhand -47.7649 -54.4874 0
rfingers 7.12502 0 0
rthumb -20.4424 -803.431 0
884
root 3.83094 16.5442 30.5956 -10.2518 24.4236 358.969
lfemur -16.6349 21.3339 -18.7512
ltibia 40.7658 0 0
lfoot -13.06 0.642447 0
ltoes -1.26122 0 0
rfemur -78.7023 -25.5224 35.1004
rtibia 103.434 0 0
rfoot 19.5899 25.1064 0
rtoes -6.51641 0 0
lowerback 14.3323 -4.18378 -6.51241
upperback 4.68112 -6.45537 -2.20531
thorax -2.57082 -3.19785 2.34796
lowerneck -7.7619 -3.43045 1.57265
upperneck 4.86116 -5.09173 4.99065
head 3.02636 -2.30864 1.09159
lclavicle -1.74724e-14 -1.17764e-14 0
lhumerus -33.7707 -41.2446 89.6835
lradius 60.4626 0 0
lwrist 18.5178 0 0
lhand 26.3837 11.8486 0
lfingers 7.12502 0 0
lthumb 50.4275 32.8368 0
rclavicle -1.74724e-14 -1.17764e-14 0
rhumerus -49.182 -29.1244 -48.4969
rradius 74.5382 0 0
rwrist -23.504 0 0
rhand -48.5529 -58.8909 0
rfingers 7.12502 0 0
rthumb -21.1992 -870.092 0
885
root 3.80942 16.5529 30.6683 -9.61751 25.1842 358.649
lfemur -17.5171 22.6859 -18.5667
ltibia 41.0682 0 0
lfoot -13.2526 0.96905 0
ltoes -1.13084 0 0
rfemur -76.2063 -26.5893 33.3054
rtibia 105.609 0 0
rfoot 19.7105 23.7427 0
rtoes -5.38388 0 0
lowerback 13.6069 -4.34712 -6.43101
upperback 4.36435 -6.61886 -2.04317
thorax -2.48909 -3.2791 2.44389
lowerneck -7.78651 -3.64121 1.40884
upperneck 5.01858 -5.37038 5.04661
head 3.09882 -2.4436 1.12276
lclavicle 3.20427e-15 -1.73911e-14 0
lhumerus -34.7285 -41.9381 91.1699
lradius 60.4612 0 0
lwrist 17.4104 0 0
lhand 26.8118 11.8036 0
lfingers 7.12502 0 0
lthumb 50.8182 32.578 0
rclavicle 3.20427e-15 -1.73911e-14 0
rhumerus -49.0613 -28.2803 -50.3796
rradius 77.0552 0 0
rwrist -23.5548 0 0
rhand -48.867 -62.0432 0
rfingers 7.12502 0 0
rthumb -21.5008 -914.475 0
886
root 3.78807 16.5575 30.7462 -8.94451 25.9339 358.393
lfemur -18.4259 24.0054 -18.4554
ltibia 41.3897 0 0
lfoot -13.4935 1.0817 0
ltoes -0.990935 0 0
rfemur -73.3381 -27.5978 31.2122
rtibia 107.587 0 0
rfoot 19.663 22.1847 0
rtoes -4.65728 0 0
lowerback 12.8535 -4.49824 -6.39739
upperback 4.03585 -6.77181 -1.89772
thorax -2.40011 -3.35513 2.54334
lowerneck -7.79431 -3.86928 1.23087
upperneck 5.13322 -5.66822 5.1063
head 3.15497 -2.58963 1.15689
lclavicle 2.3022e-14 -2.10028e-14 0
lhumerus -35.8525 -42.6025 92.7471
lradius 60.5749 0 0
lwrist 16.3657 0 0
lhand 27.1239 11.7507 0
lfingers 7.12502 0 0
lthumb 51.103 32.3687 0
rclavicle 2.3022e-14 -2.10028e-14 0
rhumerus -48.904 -27.1911 -52.5129
rradius 79.7524 0 0
rwrist -23.5061 0 0
rhand -48.7264 -63.945 0
rfingers 7.12502 0 0
rthumb -21.3656 -936.756 0
887
root 3.76758 16.5585 30.8265 -8.25565 26.6478 358.207
lfemur -19.3311 25.2438 -18.4146
ltibia 41.7213 0 0
lfoot -13.7659 1.01323 0
ltoes -0.843763 0 0
rfemur -70.2109 -28.4984 28.901
rtibia 109.304 0 0
rfoot 19.4843 20.5033 0
rtoes -4.24795 0 0
lowerback 12.0959 -4.63326 -6.40527
upperback 3.70733 -6.90921 -1.77274
thorax -2.30624 -3.42345 2.64018
lowerneck -7.78708 -4.1065 1.04465
upperneck 5.20667 -5.97488 5.167
head 3.19511 -2.7415 1.1926
lclavicle 3.41822e-14 -2.19996e-14 0
lhumerus -37.0906 -43.218 94.3589
lradius 60.7851 0 0
lwrist 15.4221 0 0
lhand 27.325 11.7064 0
lfingers 7.12502 0 0
lthumb 51.2864 32.2234 0
rclavicle 3.41822e-14 -2.19996e-14 0
rhumerus -48.7203 -25.9061 -54.8125
rradius 82.5318 0 0
rwrist -23.3435 0 0
rhand -48.1507 -64.5972 0
rfingers 7.12502 0 0
rthumb -20.8121 -937.109 0
888
root 3.74864 16.5568 30.9061 -7.5738 27.3013 358.092
lfemur -20.2024 26.3522 -18.4416
ltibia 42.0543 0 0
lfoot -14.053 0.796456 0
ltoes -0.691598 0 0
rfemur -66.9375 -29.2415 26.4521
rtibia 110.694 0 0
rfoot 19.2117 18.7693 0
rtoes -4.06723 0 0
lowerback 11.3579 -4.74833 -6.44834
upperback 3.3905 -7.02605 -1.67201
thorax -2.20982 -3.48158 2.7283
lowerneck -7.76658 -4.3447 0.856097
upperneck 5.24049 -6.28 5.22599
head 3.21955 -2.89396 1.22853
lclavicle 2.88861e-14 -1.97695e-14 0
lhumerus -38.3909 -43.7645 95.9491
lradius 61.0734 0 0
lwrist 14.6177 0 0
lhand 27.4199 11.6876 0
lfingers 7.12502 0 0
lthumb 51.3729 32.1571 0
rclavicle 2.88861e-14 -1.97695e-14 0
rhumerus -48.5209 -24.4748 -57.1938
rradius 85.2957 0 0
rwrist -23.0528 0 0
rhand -47.1591 -64.0004 0
rfingers 7.12502 0 0
rthumb -19.8589 -915.71 0
889
root 3.73195 16.553 30.9821 -6.9218 27.8695 358.053
lfemur -21.0097 27.2818 -18.5338
ltibia 42.3797 0 0
lfoot -14.338 0.464217 0
ltoes -0.53671 0 0
rfemur -63.6312 -29.7775 23.9457
rtibia 111.695 0 0
rfoot 18.8822 17.0537 0
rtoes -4.02645 0 0
lowerback 10.6632 -4.83957 -6.52032
upperback 3.09706 -7.11732 -1.59931
thorax -2.11319 -3.52706 2.80159
lowerneck -7.7346 -4.5757 0.671126
upperneck 5.23626 -6.57319 5.28053
head 3.22861 -3.04177 1.26332
lclavicle -6.64795e-16 -1.37005e-14 0
lhumerus -39.7013 -44.2219 97.4615
lradius 61.4212 0 0
lwrist 13.9909 0 0
lhand 27.4135 11.7108 0
lfingers 7.12502 0 0
lthumb 51.3672 32.1844 0
rclavicle -6.64795e-16 -1.37005e-14 0
rhumerus -48.316 -22.9463 -59.5724
rradius 87.9462 0 0
rwrist -22.6197 0 0
rhand -45.7711 -62.1555 0
rfingers 7.12502 0 0
rthumb -18.5243 -872.733 0
890
root 3.71818 16.5479 31.0514 -6.32248 28.3277 358.093
lfemur -21.7226 27.984 -18.6884
ltibia 42.6887 0 0
lfoot -14.604 0.0493379 0
ltoes -0.381373 0 0
rfemur -60.4049 -30.057 21.4621
rtibia 112.241 0 0
rfoot 18.5331 15.4272 0
rtoes -4.03696 0 0
lowerback 10.0357 -4.9031 -6.61491
upperback 2.83873 -7.178 -1.55844
thorax -2.0187 -3.55739 2.85392
lowerneck -7.69289 -4.79134 0.495652
upperneck 5.19557 -6.84408 5.32792
head 3.2226 -3.17971 1.29558
lclavicle -6.22693e-14 -3.18055e-15 0
lhumerus -40.9697 -44.5703 98.84
lradius 61.8099 0 0
lwrist 13.5798 0 0
lhand 27.3106 11.7927 0
lfingers 7.12502 0 0
lthumb 51.2736 32.3201 0
rclavicle -6.22693e-14 -3.18055e-15 0
rhumerus -48.1161 -21.3701 -61.8639
rradius 90.3854 0 0
rwrist -22.0301 0 0
rhand -44.006 -59.0633 0
rfingers 7.12502 0 0
rthumb -16.827 -808.354 0
891
root 3.71217 16.5391 31.1156 -5.78327 28.446 358.221
lfemur -22.332 28.2107 -18.857
ltibia 43.0951 0 0
lfoot -14.785 -0.16744 0
ltoes -0.0841179 0 0
rfemur -57.0707 -29.1861 18.9784
rtibia 111.398 0 0
rfoot 18.1725 13.0982 0
rtoes -2.47535 0 0
lowerback 9.41616 -4.87182 -6.56705
upperback 2.62058 -7.09765 -1.55608
thorax -1.91752 -3.51811 2.77532
lowerneck -7.64079 -5.00292 0.287359
upperneck 5.12921 -7.10108 5.3193
head 3.20623 -3.31429 1.31625
lclavicle -3.1219e-14 3.73693e-15 0
lhumerus -42.1782 -44.5887 100.111
lradius 62.1187 0 0
lwrist 13.5494 0 0
lhand 27.2885 12.216 0
lfingers 7.12502 0 0
lthumb 51.2535 32.7543 0
rclavicle -3.1219e-14 3.73693e-15 0
rhumerus -47.9016 -19.3535 -64.2744
rradius 92.7091 0 0
rwrist -20.561 0 0
rhand -40.1998 -54.2447 0
rfingers 7.12502 0 0
rthumb -13.1567 -803.717 0
892
root 3.70739 16.5282 31.1833 -5.23281 28.4559 358.344
lfemur -22.973 28.3736 -18.9868
ltibia 43.6037 0 0
lfoot -14.975 -0.284472 0
ltoes 0.29777 0 0
rfemur -53.5675 -27.9667 16.467
rtibia 110.126 0 0
rfoot 17.7271 10.2056 0
rtoes -0.105909 0 0
lowerback 8.75392 -4.80315 -6.43786
upperback 2.39129 -6.95962 -1.55195
thorax -1.81727 -3.45012 2.64823
lowerneck -7.5848 -5.2257 0.0542181
upperneck 5.06746 -7.36963 5.29207
head 3.1917 -3.4557 1.33454
lclavicle -1.29278e-14 3.86674e-15 0
lhumerus -43.4208 -44.4933 101.437
lradius 62.3716 0 0
lwrist 13.5141 0 0
lhand 27.3639 12.7216 0
lfingers 7.12502 0 0
lthumb 51.322 33.2198 0
rclavicle -1.29278e-14 3.86674e-15 0
rhumerus -47.6508 -17.0655 -66.8779
rradius 95.1764 0 0
rwrist -18.8549 0 0
rhand -35.5431 -49.0495 0
rfingers 7.12502 0 0
rthumb -8.66411 -798.649 0
